<svg xmlns="http://www.w3.org/2000/svg" viewBox="0 0 512 512" role="img" aria-labelledby="title desc">
  <title id="title">Шино-Мастер</title>
  <desc id="desc">Современный логотип шиномонтажа Шино-Мастер: колесо и монограмма SM</desc>
  <defs>
    <radialGradient id="bg" cx="30%" cy="22%" r="78%">
      <stop offset="0" stop-color="#1E3A8A"/>
      <stop offset="0.42" stop-color="#0F172A"/>
      <stop offset="1" stop-color="#020617"/>
    </radialGradient>
    <linearGradient id="ring" x1="100" y1="94" x2="420" y2="422" gradientUnits="userSpaceOnUse">
      <stop offset="0" stop-color="#BAE6FD"/>
      <stop offset="0.34" stop-color="#38BDF8"/>
      <stop offset="0.68" stop-color="#0EA5E9"/>
      <stop offset="1" stop-color="#7DD3FC"/>
    </linearGradient>
    <linearGradient id="gold" x1="154" y1="118" x2="360" y2="398" gradientUnits="userSpaceOnUse">
      <stop offset="0" stop-color="#FFFFFF"/>
      <stop offset="0.2" stop-color="#FFF7B0"/>
      <stop offset="0.5" stop-color="#FFD700"/>
      <stop offset="0.78" stop-color="#FBBF24"/>
      <stop offset="1" stop-color="#FFF3A1"/>
    </linearGradient>
    <filter id="shadow" x="-20%" y="-20%" width="140%" height="140%">
      <feDropShadow dx="0" dy="20" stdDeviation="20" flood-color="#000000" flood-opacity="0.45"/>
      <feDropShadow dx="0" dy="0" stdDeviation="18" flood-color="#38BDF8" flood-opacity="0.26"/>
    </filter>
  </defs>
  <rect width="512" height="512" rx="116" fill="url(#bg)"/>
  <path d="M86 372 372 86h54L140 372H86Z" fill="#38BDF8" opacity="0.12"/>
  <path d="M112 424h288" stroke="#38BDF8" stroke-width="14" stroke-linecap="round" opacity="0.28"/>
  <g filter="url(#shadow)">
    <circle cx="256" cy="246" r="154" fill="#020617" stroke="url(#ring)" stroke-width="22"/>
    <circle cx="256" cy="246" r="116" fill="none" stroke="#1E293B" stroke-width="20"/>
    <circle cx="256" cy="246" r="78" fill="#07111F" stroke="url(#gold)" stroke-width="12"/>
    <circle cx="256" cy="246" r="24" fill="url(#gold)"/>
    <g fill="none" stroke="#334155" stroke-width="10" stroke-linecap="round" opacity="0.9">
      <path d="M256 140v44"/>
      <path d="M256 308v44"/>
      <path d="M150 246h44"/>
      <path d="M318 246h44"/>
      <path d="m181 171 31 31"/>
      <path d="m300 290 31 31"/>
      <path d="m331 171-31 31"/>
      <path d="m212 290-31 31"/>
    </g>
  </g>
  <g aria-hidden="true">
    <text x="256" y="428" text-anchor="middle" font-family="Manrope, Inter, Arial, sans-serif" font-size="70" font-weight="900" letter-spacing="-6" fill="url(#gold)">SM</text>
    <path d="M158 448h196" stroke="#F8FAFC" stroke-width="8" stroke-linecap="round" opacity="0.9"/>
  </g>
</svg>
